{
	"asset":{
		"generator":"Khronos glTF Blender I/O v4.5.47",
		"version":"2.0"
	},
	"extensionsUsed":[
		"EXT_texture_webp"
	],
	"extensionsRequired":[
		"EXT_texture_webp"
	],
	"scene":0,
	"scenes":[
		{
			"name":"Scene",
			"nodes":[
				0
			]
		}
	],
	"nodes":[
		{
			"mesh":0,
			"name":"Roundcube",
			"scale":[
				3.0304744243621826,
				1.6687616109848022,
				3.0304744243621826
			],
			"translation":[
				0.0008582787122577429,
				1.4312183856964111,
				-0.008761700242757797
			]
		}
	],
	"materials":[
		{
			"doubleSided":true,
			"name":"bun",
			"normalTexture":{
				"index":0,
				"scale":0.40000003576278687
			},
			"pbrMetallicRoughness":{
				"baseColorTexture":{
					"index":1
				},
				"metallicFactor":0,
				"metallicRoughnessTexture":{
					"index":2
				}
			}
		},
		{
			"doubleSided":true,
			"name":"bun_inside",
			"normalTexture":{
				"index":3,
				"scale":1.6600000858306885
			},
			"pbrMetallicRoughness":{
				"baseColorTexture":{
					"index":4
				},
				"metallicFactor":0,
				"metallicRoughnessTexture":{
					"index":5
				}
			}
		},
		{
			"doubleSided":true,
			"name":"seeds",
			"pbrMetallicRoughness":{
				"baseColorFactor":[
					0.09382709860801697,
					0.02160775475203991,
					0.00946387741714716,
					1
				],
				"metallicFactor":0,
				"roughnessFactor":0.6592920422554016
			}
		}
	],
	"meshes":[
		{
			"name":"Mesh",
			"primitives":[
				{
					"attributes":{
						"POSITION":0,
						"NORMAL":1,
						"TEXCOORD_0":2
					},
					"indices":3,
					"material":0
				},
				{
					"attributes":{
						"POSITION":4,
						"NORMAL":5,
						"TEXCOORD_0":6
					},
					"indices":7,
					"material":1
				},
				{
					"attributes":{
						"POSITION":8,
						"NORMAL":9,
						"TEXCOORD_0":10
					},
					"indices":11,
					"material":2
				}
			]
		}
	],
	"textures":[
		{
			"extensions":{
				"EXT_texture_webp":{
					"source":0
				}
			},
			"sampler":0
		},
		{
			"extensions":{
				"EXT_texture_webp":{
					"source":1
				}
			},
			"sampler":0
		},
		{
			"extensions":{
				"EXT_texture_webp":{
					"source":2
				}
			},
			"sampler":0
		},
		{
			"extensions":{
				"EXT_texture_webp":{
					"source":3
				}
			},
			"sampler":0
		},
		{
			"extensions":{
				"EXT_texture_webp":{
					"source":4
				}
			},
			"sampler":0
		},
		{
			"extensions":{
				"EXT_texture_webp":{
					"source":5
				}
			},
			"sampler":0
		}
	],
	"images":[
		{
			"mimeType":"image/webp",
			"name":"cracks_normal",
			"uri":"cracks_normal.webp"
		},
		{
			"mimeType":"image/webp",
			"name":"bun_albedo",
			"uri":"bun_albedo.webp"
		},
		{
			"mimeType":"image/webp",
			"name":"bun_spec",
			"uri":"bun_spec.webp"
		},
		{
			"mimeType":"image/webp",
			"name":"burn_normal",
			"uri":"burn_normal.webp"
		},
		{
			"mimeType":"image/webp",
			"name":"burn_albedo",
			"uri":"burn_albedo.webp"
		},
		{
			"mimeType":"image/webp",
			"name":"burn_spec",
			"uri":"burn_spec.webp"
		}
	],
	"accessors":[
		{
			"bufferView":0,
			"componentType":5126,
			"count":1108,
			"max":[
				0.9845825433731079,
				1.3865622282028198,
				0.9845825433731079
			],
			"min":[
				-0.9845825433731079,
				0.0044886283576488495,
				-0.9845825433731079
			],
			"type":"VEC3"
		},
		{
			"bufferView":1,
			"componentType":5126,
			"count":1108,
			"type":"VEC3"
		},
		{
			"bufferView":2,
			"componentType":5126,
			"count":1108,
			"type":"VEC2"
		},
		{
			"bufferView":3,
			"componentType":5123,
			"count":5376,
			"type":"SCALAR"
		},
		{
			"bufferView":4,
			"componentType":5126,
			"count":542,
			"max":[
				0.9668607115745544,
				0.02786853164434433,
				0.9668607115745544
			],
			"min":[
				-0.9668607115745544,
				-0.011634733527898788,
				-0.9668607115745544
			],
			"type":"VEC3"
		},
		{
			"bufferView":5,
			"componentType":5126,
			"count":542,
			"type":"VEC3"
		},
		{
			"bufferView":6,
			"componentType":5126,
			"count":542,
			"type":"VEC2"
		},
		{
			"bufferView":7,
			"componentType":5123,
			"count":2112,
			"type":"SCALAR"
		},
		{
			"bufferView":8,
			"componentType":5126,
			"count":243004,
			"max":[
				0.9354660511016846,
				1.396446704864502,
				0.8977620005607605
			],
			"min":[
				-0.9092434644699097,
				0.2932456135749817,
				-0.8422706723213196
			],
			"type":"VEC3"
		},
		{
			"bufferView":9,
			"componentType":5126,
			"count":243004,
			"type":"VEC3"
		},
		{
			"bufferView":10,
			"componentType":5126,
			"count":243004,
			"type":"VEC2"
		},
		{
			"bufferView":11,
			"componentType":5125,
			"count":1456128,
			"type":"SCALAR"
		}
	],
	"bufferViews":[
		{
			"buffer":0,
			"byteLength":13296,
			"byteOffset":0,
			"target":34962
		},
		{
			"buffer":0,
			"byteLength":13296,
			"byteOffset":13296,
			"target":34962
		},
		{
			"buffer":0,
			"byteLength":8864,
			"byteOffset":26592,
			"target":34962
		},
		{
			"buffer":0,
			"byteLength":10752,
			"byteOffset":35456,
			"target":34963
		},
		{
			"buffer":0,
			"byteLength":6504,
			"byteOffset":46208,
			"target":34962
		},
		{
			"buffer":0,
			"byteLength":6504,
			"byteOffset":52712,
			"target":34962
		},
		{
			"buffer":0,
			"byteLength":4336,
			"byteOffset":59216,
			"target":34962
		},
		{
			"buffer":0,
			"byteLength":4224,
			"byteOffset":63552,
			"target":34963
		},
		{
			"buffer":0,
			"byteLength":2916048,
			"byteOffset":67776,
			"target":34962
		},
		{
			"buffer":0,
			"byteLength":2916048,
			"byteOffset":2983824,
			"target":34962
		},
		{
			"buffer":0,
			"byteLength":1944032,
			"byteOffset":5899872,
			"target":34962
		},
		{
			"buffer":0,
			"byteLength":5824512,
			"byteOffset":7843904,
			"target":34963
		}
	],
	"samplers":[
		{
			"magFilter":9729,
			"minFilter":9987
		}
	],
	"buffers":[
		{
			"byteLength":13668416,
			"uri":"bun_up.bin"
		}
	]
}
