{
	"asset":{
		"generator":"Khronos glTF Blender I/O v4.5.47",
		"version":"2.0"
	},
	"extensionsUsed":[
		"EXT_texture_webp"
	],
	"extensionsRequired":[
		"EXT_texture_webp"
	],
	"scene":0,
	"scenes":[
		{
			"name":"Scene",
			"nodes":[
				0
			]
		}
	],
	"nodes":[
		{
			"mesh":0,
			"name":"Cylinder"
		}
	],
	"materials":[
		{
			"doubleSided":true,
			"name":"bun",
			"normalTexture":{
				"index":0,
				"scale":0.40000003576278687
			},
			"pbrMetallicRoughness":{
				"baseColorTexture":{
					"index":1
				},
				"metallicFactor":0,
				"metallicRoughnessTexture":{
					"index":2
				}
			}
		},
		{
			"doubleSided":true,
			"name":"bun_inside",
			"normalTexture":{
				"index":3,
				"scale":1.6600000858306885
			},
			"pbrMetallicRoughness":{
				"baseColorTexture":{
					"index":4
				},
				"metallicFactor":0,
				"metallicRoughnessTexture":{
					"index":5
				}
			}
		}
	],
	"meshes":[
		{
			"name":"Mesh",
			"primitives":[
				{
					"attributes":{
						"POSITION":0,
						"NORMAL":1,
						"TEXCOORD_0":2
					},
					"indices":3,
					"material":0
				},
				{
					"attributes":{
						"POSITION":4,
						"NORMAL":5,
						"TEXCOORD_0":6
					},
					"indices":7,
					"material":1
				}
			]
		}
	],
	"textures":[
		{
			"extensions":{
				"EXT_texture_webp":{
					"source":0
				}
			},
			"sampler":0
		},
		{
			"extensions":{
				"EXT_texture_webp":{
					"source":1
				}
			},
			"sampler":0
		},
		{
			"extensions":{
				"EXT_texture_webp":{
					"source":2
				}
			},
			"sampler":0
		},
		{
			"extensions":{
				"EXT_texture_webp":{
					"source":3
				}
			},
			"sampler":0
		},
		{
			"extensions":{
				"EXT_texture_webp":{
					"source":4
				}
			},
			"sampler":0
		},
		{
			"extensions":{
				"EXT_texture_webp":{
					"source":5
				}
			},
			"sampler":0
		}
	],
	"images":[
		{
			"mimeType":"image/webp",
			"name":"cracks_normal",
			"uri":"cracks_normal.webp"
		},
		{
			"mimeType":"image/webp",
			"name":"bun_albedo",
			"uri":"bun_albedo.webp"
		},
		{
			"mimeType":"image/webp",
			"name":"bun_spec",
			"uri":"bun_spec.webp"
		},
		{
			"mimeType":"image/webp",
			"name":"burn_normal",
			"uri":"burn_normal.webp"
		},
		{
			"mimeType":"image/webp",
			"name":"burn_albedo",
			"uri":"burn_albedo.webp"
		},
		{
			"mimeType":"image/webp",
			"name":"burn_spec",
			"uri":"burn_spec.webp"
		}
	],
	"accessors":[
		{
			"bufferView":0,
			"componentType":5126,
			"count":1045,
			"max":[
				3.0742616653442383,
				0.3104599416255951,
				3.0742616653442383
			],
			"min":[
				-3.0742616653442383,
				-0.40300002694129944,
				-3.0742616653442383
			],
			"type":"VEC3"
		},
		{
			"bufferView":1,
			"componentType":5126,
			"count":1045,
			"type":"VEC3"
		},
		{
			"bufferView":2,
			"componentType":5126,
			"count":1045,
			"type":"VEC2"
		},
		{
			"bufferView":3,
			"componentType":5123,
			"count":4416,
			"type":"SCALAR"
		},
		{
			"bufferView":4,
			"componentType":5126,
			"count":595,
			"max":[
				2.978546619415283,
				0.4029999375343323,
				2.978546619415283
			],
			"min":[
				-2.978546619415283,
				0.3104599118232727,
				-2.978546619415283
			],
			"type":"VEC3"
		},
		{
			"bufferView":5,
			"componentType":5126,
			"count":595,
			"type":"VEC3"
		},
		{
			"bufferView":6,
			"componentType":5126,
			"count":595,
			"type":"VEC2"
		},
		{
			"bufferView":7,
			"componentType":5123,
			"count":2112,
			"type":"SCALAR"
		}
	],
	"bufferViews":[
		{
			"buffer":0,
			"byteLength":12540,
			"byteOffset":0,
			"target":34962
		},
		{
			"buffer":0,
			"byteLength":12540,
			"byteOffset":12540,
			"target":34962
		},
		{
			"buffer":0,
			"byteLength":8360,
			"byteOffset":25080,
			"target":34962
		},
		{
			"buffer":0,
			"byteLength":8832,
			"byteOffset":33440,
			"target":34963
		},
		{
			"buffer":0,
			"byteLength":7140,
			"byteOffset":42272,
			"target":34962
		},
		{
			"buffer":0,
			"byteLength":7140,
			"byteOffset":49412,
			"target":34962
		},
		{
			"buffer":0,
			"byteLength":4760,
			"byteOffset":56552,
			"target":34962
		},
		{
			"buffer":0,
			"byteLength":4224,
			"byteOffset":61312,
			"target":34963
		}
	],
	"samplers":[
		{
			"magFilter":9729,
			"minFilter":9987
		}
	],
	"buffers":[
		{
			"byteLength":65536,
			"uri":"bun_down.bin"
		}
	]
}
