{
	"asset":{
		"generator":"Khronos glTF Blender I/O v4.5.47",
		"version":"2.0"
	},
	"scene":0,
	"scenes":[
		{
			"name":"Scene",
			"nodes":[
				0
			]
		}
	],
	"nodes":[
		{
			"mesh":0,
			"name":"Plane",
			"rotation":[
				0,
				-0.5021757483482361,
				0,
				0.8647655844688416
			],
			"scale":[
				2.5689337253570557,
				2.5689337253570557,
				2.5689337253570557
			],
			"translation":[
				-0.08551660180091858,
				1.1486732959747314,
				0
			]
		}
	],
	"materials":[
		{
			"doubleSided":true,
			"name":"Material.004",
			"pbrMetallicRoughness":{
				"baseColorFactor":[
					0.8004740476608276,
					0.4307344853878021,
					0.012839214876294136,
					1
				],
				"metallicFactor":0,
				"roughnessFactor":0.23636364936828613
			}
		}
	],
	"meshes":[
		{
			"name":"Mesh",
			"primitives":[
				{
					"attributes":{
						"POSITION":0,
						"NORMAL":1,
						"TEXCOORD_0":2
					},
					"indices":3,
					"material":0
				}
			]
		}
	],
	"accessors":[
		{
			"bufferView":0,
			"componentType":5126,
			"count":3371,
			"max":[
				0.9926114082336426,
				0.04679645225405693,
				0.9925845861434937
			],
			"min":[
				-0.992611825466156,
				-0.21861182153224945,
				-0.9925839304924011
			],
			"type":"VEC3"
		},
		{
			"bufferView":1,
			"componentType":5126,
			"count":3371,
			"type":"VEC3"
		},
		{
			"bufferView":2,
			"componentType":5126,
			"count":3371,
			"type":"VEC2"
		},
		{
			"bufferView":3,
			"componentType":5123,
			"count":19008,
			"type":"SCALAR"
		}
	],
	"bufferViews":[
		{
			"buffer":0,
			"byteLength":40452,
			"byteOffset":0,
			"target":34962
		},
		{
			"buffer":0,
			"byteLength":40452,
			"byteOffset":40452,
			"target":34962
		},
		{
			"buffer":0,
			"byteLength":26968,
			"byteOffset":80904,
			"target":34962
		},
		{
			"buffer":0,
			"byteLength":38016,
			"byteOffset":107872,
			"target":34963
		}
	],
	"buffers":[
		{
			"byteLength":145888,
			"uri":"cheese.bin"
		}
	]
}
