{
	"asset":{
		"generator":"Khronos glTF Blender I/O v4.5.47",
		"version":"2.0"
	},
	"extensionsUsed":[
		"EXT_texture_webp"
	],
	"extensionsRequired":[
		"EXT_texture_webp"
	],
	"scene":0,
	"scenes":[
		{
			"name":"Scene",
			"nodes":[
				0
			]
		}
	],
	"nodes":[
		{
			"mesh":0,
			"name":"Cylinder.001",
			"scale":[
				1.0587146282196045,
				1.0587146282196045,
				1.0587146282196045
			],
			"translation":[
				0,
				-0.2365877777338028,
				0
			]
		}
	],
	"materials":[
		{
			"doubleSided":true,
			"name":"salad.001",
			"normalTexture":{
				"index":0,
				"scale":0.30000004172325134
			},
			"pbrMetallicRoughness":{
				"baseColorTexture":{
					"index":1
				},
				"metallicFactor":0,
				"metallicRoughnessTexture":{
					"index":2
				}
			}
		}
	],
	"meshes":[
		{
			"name":"Cylinder.001",
			"primitives":[
				{
					"attributes":{
						"POSITION":0,
						"NORMAL":1,
						"TEXCOORD_0":2
					},
					"indices":3,
					"material":0
				}
			]
		}
	],
	"textures":[
		{
			"extensions":{
				"EXT_texture_webp":{
					"source":0
				}
			},
			"sampler":0
		},
		{
			"extensions":{
				"EXT_texture_webp":{
					"source":1
				}
			},
			"sampler":0
		},
		{
			"extensions":{
				"EXT_texture_webp":{
					"source":2
				}
			},
			"sampler":0
		}
	],
	"images":[
		{
			"mimeType":"image/webp",
			"name":"leaf_normal",
			"uri":"leaf_normal.webp"
		},
		{
			"mimeType":"image/webp",
			"name":"leaf_albedo",
			"uri":"leaf_albedo.webp"
		},
		{
			"mimeType":"image/webp",
			"name":"leaf_gloss",
			"uri":"leaf_gloss.webp"
		}
	],
	"accessors":[
		{
			"bufferView":0,
			"componentType":5126,
			"count":4915,
			"max":[
				2.9556655883789062,
				0.8972229361534119,
				2.9208285808563232
			],
			"min":[
				-2.939340353012085,
				0.3770950734615326,
				-2.9507884979248047
			],
			"type":"VEC3"
		},
		{
			"bufferView":1,
			"componentType":5126,
			"count":4915,
			"type":"VEC3"
		},
		{
			"bufferView":2,
			"componentType":5126,
			"count":4915,
			"type":"VEC2"
		},
		{
			"bufferView":3,
			"componentType":5123,
			"count":29490,
			"type":"SCALAR"
		}
	],
	"bufferViews":[
		{
			"buffer":0,
			"byteLength":58980,
			"byteOffset":0,
			"target":34962
		},
		{
			"buffer":0,
			"byteLength":58980,
			"byteOffset":58980,
			"target":34962
		},
		{
			"buffer":0,
			"byteLength":39320,
			"byteOffset":117960,
			"target":34962
		},
		{
			"buffer":0,
			"byteLength":58980,
			"byteOffset":157280,
			"target":34963
		}
	],
	"samplers":[
		{
			"magFilter":9729,
			"minFilter":9987
		}
	],
	"buffers":[
		{
			"byteLength":216260,
			"uri":"salad.bin"
		}
	]
}
