{
	"asset":{
		"generator":"Khronos glTF Blender I/O v4.5.47",
		"version":"2.0"
	},
	"extensionsUsed":[
		"KHR_materials_clearcoat"
	],
	"scene":0,
	"scenes":[
		{
			"name":"Scene",
			"nodes":[
				0,
				1,
				2,
				3,
				4
			]
		}
	],
	"nodes":[
		{
			"mesh":0,
			"name":"Cylinder.003",
			"scale":[
				0.33643266558647156,
				0.33643266558647156,
				0.33643266558647156
			],
			"translation":[
				-0.9202035665512085,
				1.312529444694519,
				0.9928967952728271
			]
		},
		{
			"mesh":1,
			"name":"Cylinder.004",
			"scale":[
				0.33643266558647156,
				0.33643266558647156,
				0.33643266558647156
			],
			"translation":[
				1.2964673042297363,
				1.3099628686904907,
				0.6278800964355469
			]
		},
		{
			"mesh":2,
			"name":"Cylinder.005",
			"rotation":[
				-0.022463716566562653,
				0,
				0,
				0.9997477531433105
			],
			"scale":[
				0.33643266558647156,
				0.33643266558647156,
				0.33643266558647156
			],
			"translation":[
				-1.1933891773223877,
				1.3311580419540405,
				-1.5233814716339111
			]
		},
		{
			"mesh":3,
			"name":"Cylinder.006",
			"scale":[
				0.3998170495033264,
				0.3998170495033264,
				0.3998170495033264
			],
			"translation":[
				0.7982034683227539,
				1.2817131280899048,
				-1.2400147914886475
			]
		},
		{
			"mesh":4,
			"name":"Cylinder.007",
			"rotation":[
				-0.022420698776841164,
				-0.0013894338626414537,
				0.06183676794171333,
				0.9978334903717041
			],
			"scale":[
				0.33643263578414917,
				0.33643266558647156,
				0.33643266558647156
			],
			"translation":[
				-2.1369545459747314,
				1.383636236190796,
				-0.2865936756134033
			]
		}
	],
	"materials":[
		{
			"doubleSided":true,
			"extensions":{
				"KHR_materials_clearcoat":{
					"clearcoatFactor":0.3893805146217346,
					"clearcoatRoughnessFactor":0.5432742834091187
				}
			},
			"name":"tomato",
			"pbrMetallicRoughness":{
				"baseColorFactor":[
					0.8004492521286011,
					0.10486754775047302,
					0.03045061230659485,
					1
				],
				"metallicFactor":0,
				"roughnessFactor":0.278761088848114
			}
		}
	],
	"meshes":[
		{
			"name":"Cylinder.003",
			"primitives":[
				{
					"attributes":{
						"POSITION":0,
						"NORMAL":1,
						"TEXCOORD_0":2
					},
					"indices":3,
					"material":0
				}
			]
		},
		{
			"name":"Cylinder.004",
			"primitives":[
				{
					"attributes":{
						"POSITION":4,
						"NORMAL":5,
						"TEXCOORD_0":6
					},
					"indices":3,
					"material":0
				}
			]
		},
		{
			"name":"Cylinder.005",
			"primitives":[
				{
					"attributes":{
						"POSITION":7,
						"NORMAL":8,
						"TEXCOORD_0":9
					},
					"indices":3,
					"material":0
				}
			]
		},
		{
			"name":"Cylinder.006",
			"primitives":[
				{
					"attributes":{
						"POSITION":10,
						"NORMAL":11,
						"TEXCOORD_0":12
					},
					"indices":3,
					"material":0
				}
			]
		},
		{
			"name":"Cylinder.005",
			"primitives":[
				{
					"attributes":{
						"POSITION":13,
						"NORMAL":14,
						"TEXCOORD_0":15
					},
					"indices":3,
					"material":0
				}
			]
		}
	],
	"accessors":[
		{
			"bufferView":0,
			"componentType":5126,
			"count":452,
			"max":[
				3.1000001430511475,
				0.4030001163482666,
				3.1000001430511475
			],
			"min":[
				-3.1000001430511475,
				-0.4029999375343323,
				-3.1000001430511475
			],
			"type":"VEC3"
		},
		{
			"bufferView":1,
			"componentType":5126,
			"count":452,
			"type":"VEC3"
		},
		{
			"bufferView":2,
			"componentType":5126,
			"count":452,
			"type":"VEC2"
		},
		{
			"bufferView":3,
			"componentType":5123,
			"count":1920,
			"type":"SCALAR"
		},
		{
			"bufferView":4,
			"componentType":5126,
			"count":452,
			"max":[
				3.1000001430511475,
				0.4030001163482666,
				3.1000001430511475
			],
			"min":[
				-3.1000001430511475,
				-0.4029999375343323,
				-3.1000001430511475
			],
			"type":"VEC3"
		},
		{
			"bufferView":5,
			"componentType":5126,
			"count":452,
			"type":"VEC3"
		},
		{
			"bufferView":6,
			"componentType":5126,
			"count":452,
			"type":"VEC2"
		},
		{
			"bufferView":7,
			"componentType":5126,
			"count":452,
			"max":[
				3.02175235748291,
				0.3614349663257599,
				3.02175235748291
			],
			"min":[
				-3.02175235748291,
				-0.34918737411499023,
				-3.02175235748291
			],
			"type":"VEC3"
		},
		{
			"bufferView":8,
			"componentType":5126,
			"count":452,
			"type":"VEC3"
		},
		{
			"bufferView":9,
			"componentType":5126,
			"count":452,
			"type":"VEC2"
		},
		{
			"bufferView":10,
			"componentType":5126,
			"count":452,
			"max":[
				3.1000001430511475,
				0.4030001163482666,
				3.1000001430511475
			],
			"min":[
				-3.1000001430511475,
				-0.4029999375343323,
				-3.1000001430511475
			],
			"type":"VEC3"
		},
		{
			"bufferView":11,
			"componentType":5126,
			"count":452,
			"type":"VEC3"
		},
		{
			"bufferView":12,
			"componentType":5126,
			"count":452,
			"type":"VEC2"
		},
		{
			"bufferView":13,
			"componentType":5126,
			"count":452,
			"max":[
				3.02175235748291,
				0.3614349663257599,
				3.02175235748291
			],
			"min":[
				-3.02175235748291,
				-0.34918737411499023,
				-3.02175235748291
			],
			"type":"VEC3"
		},
		{
			"bufferView":14,
			"componentType":5126,
			"count":452,
			"type":"VEC3"
		},
		{
			"bufferView":15,
			"componentType":5126,
			"count":452,
			"type":"VEC2"
		}
	],
	"bufferViews":[
		{
			"buffer":0,
			"byteLength":5424,
			"byteOffset":0,
			"target":34962
		},
		{
			"buffer":0,
			"byteLength":5424,
			"byteOffset":5424,
			"target":34962
		},
		{
			"buffer":0,
			"byteLength":3616,
			"byteOffset":10848,
			"target":34962
		},
		{
			"buffer":0,
			"byteLength":3840,
			"byteOffset":14464,
			"target":34963
		},
		{
			"buffer":0,
			"byteLength":5424,
			"byteOffset":18304,
			"target":34962
		},
		{
			"buffer":0,
			"byteLength":5424,
			"byteOffset":23728,
			"target":34962
		},
		{
			"buffer":0,
			"byteLength":3616,
			"byteOffset":29152,
			"target":34962
		},
		{
			"buffer":0,
			"byteLength":5424,
			"byteOffset":32768,
			"target":34962
		},
		{
			"buffer":0,
			"byteLength":5424,
			"byteOffset":38192,
			"target":34962
		},
		{
			"buffer":0,
			"byteLength":3616,
			"byteOffset":43616,
			"target":34962
		},
		{
			"buffer":0,
			"byteLength":5424,
			"byteOffset":47232,
			"target":34962
		},
		{
			"buffer":0,
			"byteLength":5424,
			"byteOffset":52656,
			"target":34962
		},
		{
			"buffer":0,
			"byteLength":3616,
			"byteOffset":58080,
			"target":34962
		},
		{
			"buffer":0,
			"byteLength":5424,
			"byteOffset":61696,
			"target":34962
		},
		{
			"buffer":0,
			"byteLength":5424,
			"byteOffset":67120,
			"target":34962
		},
		{
			"buffer":0,
			"byteLength":3616,
			"byteOffset":72544,
			"target":34962
		}
	],
	"buffers":[
		{
			"byteLength":76160,
			"uri":"tomatoes.bin"
		}
	]
}
